<svg xmlns="http://www.w3.org/2000/svg" version="1.1" xmlns:xlink="http://www.w3.org/1999/xlink" xmlns:svgjs="http://svgjs.com/svgjs" width="1440" height="560" preserveAspectRatio="none" viewBox="0 0 1440 560"><g mask="url(&quot;#SvgjsMask1023&quot;)" fill="none"><rect width="1440" height="560" x="0" y="0" fill="#0e2a47"></rect><path d="M118 76L117 428" stroke-width="10" stroke="url(#SvgjsLinearGradient1024)" stroke-linecap="round" class="Down"></path><path d="M898 257L897 -7" stroke-width="8" stroke="url(#SvgjsLinearGradient1025)" stroke-linecap="round" class="Up"></path><path d="M1138 105L1137 317" stroke-width="10" stroke="url(#SvgjsLinearGradient1025)" stroke-linecap="round" class="Up"></path><path d="M701 343L700 177" stroke-width="8" stroke="url(#SvgjsLinearGradient1025)" stroke-linecap="round" class="Up"></path><path d="M377 119L376 321" stroke-width="8" stroke="url(#SvgjsLinearGradient1025)" stroke-linecap="round" class="Up"></path><path d="M1187 455L1186 834" stroke-width="10" stroke="url(#SvgjsLinearGradient1024)" stroke-linecap="round" class="Down"></path><path d="M887 7L886 386" stroke-width="6" stroke="url(#SvgjsLinearGradient1025)" stroke-linecap="round" class="Up"></path><path d="M216 87L215 -145" stroke-width="6" stroke="url(#SvgjsLinearGradient1025)" stroke-linecap="round" class="Up"></path><path d="M610 225L609 2" stroke-width="10" stroke="url(#SvgjsLinearGradient1024)" stroke-linecap="round" class="Down"></path><path d="M576 501L575 883" stroke-width="10" stroke="url(#SvgjsLinearGradient1025)" stroke-linecap="round" class="Up"></path><path d="M1247 300L1246 40" stroke-width="6" stroke="url(#SvgjsLinearGradient1025)" stroke-linecap="round" class="Up"></path><path d="M453 416L452 692" stroke-width="6" stroke="url(#SvgjsLinearGradient1025)" stroke-linecap="round" class="Up"></path><path d="M873 207L872 23" stroke-width="6" stroke="url(#SvgjsLinearGradient1024)" stroke-linecap="round" class="Down"></path><path d="M798 220L797 -102" stroke-width="6" stroke="url(#SvgjsLinearGradient1025)" stroke-linecap="round" class="Up"></path><path d="M529 202L528 578" stroke-width="8" stroke="url(#SvgjsLinearGradient1024)" stroke-linecap="round" class="Down"></path><path d="M404 425L403 63" stroke-width="10" stroke="url(#SvgjsLinearGradient1024)" stroke-linecap="round" class="Down"></path><path d="M360 405L359 34" stroke-width="8" stroke="url(#SvgjsLinearGradient1025)" stroke-linecap="round" class="Up"></path><path d="M1420 210L1419 -39" stroke-width="10" stroke="url(#SvgjsLinearGradient1025)" stroke-linecap="round" class="Up"></path><path d="M430 188L429 380" stroke-width="6" stroke="url(#SvgjsLinearGradient1025)" stroke-linecap="round" class="Up"></path><path d="M582 304L581 7" stroke-width="8" stroke="url(#SvgjsLinearGradient1025)" stroke-linecap="round" class="Up"></path><path d="M471 139L470 393" stroke-width="6" stroke="url(#SvgjsLinearGradient1025)" stroke-linecap="round" class="Up"></path><path d="M1187 527L1186 356" stroke-width="8" stroke="url(#SvgjsLinearGradient1025)" stroke-linecap="round" class="Up"></path><path d="M545 543L544 368" stroke-width="6" stroke="url(#SvgjsLinearGradient1024)" stroke-linecap="round" class="Down"></path><path d="M1436 257L1435 -143" stroke-width="8" stroke="url(#SvgjsLinearGradient1024)" stroke-linecap="round" class="Down"></path><path d="M673 45L672 -144" stroke-width="10" stroke="url(#SvgjsLinearGradient1024)" stroke-linecap="round" class="Down"></path><path d="M1150 518L1149 862" stroke-width="6" stroke="url(#SvgjsLinearGradient1024)" stroke-linecap="round" class="Down"></path><path d="M829 486L828 670" stroke-width="8" stroke="url(#SvgjsLinearGradient1024)" stroke-linecap="round" class="Down"></path><path d="M850 327L849 678" stroke-width="8" stroke="url(#SvgjsLinearGradient1024)" stroke-linecap="round" class="Down"></path><path d="M349 359L348 655" stroke-width="10" stroke="url(#SvgjsLinearGradient1025)" stroke-linecap="round" class="Up"></path><path d="M435 120L434 -195" stroke-width="8" stroke="url(#SvgjsLinearGradient1024)" stroke-linecap="round" class="Down"></path><path d="M675 7L674 411" stroke-width="8" stroke="url(#SvgjsLinearGradient1025)" stroke-linecap="round" class="Up"></path><path d="M647 364L646 737" stroke-width="10" stroke="url(#SvgjsLinearGradient1024)" stroke-linecap="round" class="Down"></path><path d="M1437 210L1436 -149" stroke-width="10" stroke="url(#SvgjsLinearGradient1025)" stroke-linecap="round" class="Up"></path><path d="M923 242L922 463" stroke-width="10" stroke="url(#SvgjsLinearGradient1025)" stroke-linecap="round" class="Up"></path><path d="M1050 1L1049 373" stroke-width="8" stroke="url(#SvgjsLinearGradient1025)" stroke-linecap="round" class="Up"></path><path d="M805 478L804 756" stroke-width="10" stroke="url(#SvgjsLinearGradient1025)" stroke-linecap="round" class="Up"></path></g><defs><mask id="SvgjsMask1023"><rect width="1440" height="560" fill="#ffffff"></rect></mask><linearGradient x1="0%" y1="0%" x2="0%" y2="100%" id="SvgjsLinearGradient1024"><stop stop-color="rgba(28, 83, 142, 0)" offset="0"></stop><stop stop-color="#1c538e" offset="1"></stop></linearGradient><linearGradient x1="0%" y1="100%" x2="0%" y2="0%" id="SvgjsLinearGradient1025"><stop stop-color="rgba(28, 83, 142, 0)" offset="0"></stop><stop stop-color="#1c538e" offset="1"></stop></linearGradient></defs></svg>